<?xml version="1.0" encoding="utf-8"?>
<!-- Generator: Adobe Illustrator 22.1.0, SVG Export Plug-In . SVG Version: 6.00 Build 0)  -->
<svg version="1.1" id="Layer_1" xmlns="http://www.w3.org/2000/svg" xmlns:xlink="http://www.w3.org/1999/xlink" x="0px" y="0px"
	 viewBox="0 0 1024 1024" style="enable-background:new 0 0 1024 1024;" xml:space="preserve">
<style type="text/css">
	.st0{fill:#FFFFFF;}
</style>
<path class="st0" d="M239.3,256.8l-9.6-3.2c-6.4-3.2-19.1-6.4-19.1-12.8c0-9.6,9.6-16,19.1-16c9.6,0,19.1,6.4,25.5,12.8l16-31.9
	c-12.8-9.6-31.9-12.8-47.9-12.8c-31.9,0-54.2,19.1-54.2,51c0,25.5,16,35.1,41.5,44.7c9.6,3.2,25.5,6.4,25.5,19.1
	c0,9.6-12.8,16-22.3,16c-12.8-3.2-22.3-9.6-31.9-19.1l-16,31.9c16,9.6,35.1,19.1,54.2,19.1c16,0,31.9-3.2,44.7-16
	c12.8-9.6,16-25.5,16-41.5C277.5,279.1,261.6,263.2,239.3,256.8z M382.8,301.5h25.5c28.7,0,54.2-16,54.2-54.2
	c0-35.1-28.7-51-57.4-51h-60.6v156.3h38.3V301.5z M382.8,231.3h12.8c16,0,28.7,0,28.7,19.1s-9.6,19.1-25.5,19.1h-16V231.3z
	 M602.9,355.7c51,0,86.1-35.1,86.1-86.1c0-44.7-41.5-76.6-86.1-76.6s-86.1,31.9-86.1,79.8C516.8,320.6,551.9,355.7,602.9,355.7z
	 M602.9,231.3c25.5,0,44.7,19.1,44.7,41.5c0,25.5-19.1,47.9-44.7,47.9s-44.7-19.1-44.7-47.9C558.3,250.4,577.4,231.3,602.9,231.3z
	 M775.2,352.5h38.3V231.3h35.1l-3.2-35.1H736.9l-3.2,35.1H772v121.2H775.2z M743.3,537.5c0-102.1-86.1-108.5-108.5-108.5H523.2v370
	c22.3,0,41.5,0,60.6,0V655.6c12.8,0,19.1,0,28.7,0l60.6,146.7c22.3,0,44.7,3.2,67,3.2l-16-35.1L669.9,646
	C705,633.2,743.3,604.5,743.3,537.5z M634.8,598.1h-51v-118h47.9c22.3,0,51,9.6,51,57.4C682.7,598.1,634.8,598.1,634.8,598.1z
	 M363.7,642.8c28.7,0,57.4-3.2,86.1-3.2v-57.4c0,0-54.2,0-86.1,0V480.1h108.5v-54.2H299.9v376.4c54.2-3.2,111.7-3.2,172.3-3.2v-57.4
	c0,0-57.4,0-108.5,3.2V642.8z M178.6,585.4c0,0-76.6,6.4-111.7,9.6V429.1H0V831c19.1-3.2,41.5-6.4,63.8-9.6v-169l111.7-9.6v165.9
	c22.3-3.2,41.5-3.2,63.8-3.2V425.9h-63.8L178.6,585.4z M899.6,425.9c-108.5,0-124.4,76.6-124.4,191.4s9.6,204.2,127.6,210.5
	c102.1,6.4,121.2-54.2,121.2-210.5C1020.8,502.4,1004.9,425.9,899.6,425.9z M957,617.3c0,114.8-3.2,149.9-57.4,146.7
	c-57.4-3.2-60.6-44.7-60.6-146.7c0-70.2-3.2-130.8,60.6-130.8C960.2,486.5,957,547.1,957,617.3z"/>
</svg>
